General
Complete name                    : Street Kings.mkv
Format                           : Matroska
File size                        : 1.24 GiB
Duration                         : 1h 44mn
Overall bit rate                 : 1 699 Kbps


Video
ID                               : 1
Format                           : AVC
Duration                         : 1h 44mn
Bit rate                         : 834 Kbps
Width                            : 720 pixels
Height                           : 428 pixels
Display aspect ratio             : 2.35:1
Original display aspect ratio    : 2.35:1
Frame rate                       : 25.000 fps
Resolution                       : 8 bits
Colorimetry                      : 4:2:0
Scan type                        : Progressive
Bits/(Pixel*Frame)               : 0.108
Stream size                      : 622 MiB (49%)
Writing library                  : x264 core 79


Audio #1
ID                               : 2
Format                           : AC-3
Format/Info                      : Audio Coding 3
Codec ID                         : A_AC3
Duration                         : 1h 44mn
Bit rate mode                    : Constant
Bit rate                         : 384 Kbps
Channel(s)                       : 6 channels
Channel positions                : Front: L C R, Surround: L R, LFE
Sampling rate                    : 48.0 KHz
Stream size                      : 287 MiB (23%)
Language                         : French

Audio #2
ID                               : 3
Format                           : AC-3
Format/Info                      : Audio Coding 3
Codec ID                         : A_AC3
Duration                         : 1h 44mn
Bit rate mode                    : Constant
Bit rate                         : 448 Kbps
Channel(s)                       : 6 channels
Channel positions                : Front: L C R, Surround: L R, LFE
Sampling rate                    : 48.0 KHz
Stream size                      : 334 MiB (26%)
Language                         : English

Text #1
Language                         : English

Text #2
Language                         : Spanish

Text #3
Language                         : French

Text #4
Language                         : Italian

Text #5
Language                         : Danish

Text #6
Language                         : Finnish

Text #7
Language                         : Norwegian

Text #8
Language                         : Swedish

Text #9
Language                         : Dutch

Menu
00:00:00.000                     : Chapter  1


